<?xml version="1.0" standalone="no"?>
<!DOCTYPE svg PUBLIC "-//W3C//DTD SVG 20010904//EN"
 "http://www.w3.org/TR/2001/REC-SVG-20010904/DTD/svg10.dtd">
<svg version="1.0" xmlns="http://www.w3.org/2000/svg"
 width="1790.000000pt" height="382.000000pt" viewBox="0 0 1790.000000 382.000000"
 preserveAspectRatio="xMidYMid meet">

<g transform="translate(0.000000,382.000000) scale(0.100000,-0.100000)"
fill="#000000" stroke="none">
<path d="M6942 3798 c-7 -7 -12 -35 -12 -62 l0 -51 -72 0 c-89 0 -163 -31
-223 -93 -121 -126 -64 -297 119 -357 28 -8 100 -25 161 -36 174 -33 335 -72
353 -85 16 -11 15 -14 -6 -37 -40 -43 -363 -190 -380 -173 -5 6 60 48 138 88
38 19 66 41 68 52 9 42 -99 105 -155 91 -44 -10 -140 -62 -212 -113 -75 -54
-181 -156 -181 -175 0 -25 32 -58 80 -82 42 -21 63 -25 144 -25 91 0 185 16
271 45 143 49 288 113 357 159 40 26 48 36 48 64 0 38 -37 99 -80 130 -108 80
-280 136 -540 175 -82 12 -85 13 -88 40 -8 66 89 173 182 202 l57 18 16 -23
c51 -73 125 -129 171 -130 22 0 12 47 -18 85 -35 44 -38 55 -42 152 -4 82 -17
103 -85 134 -49 22 -55 23 -71 7z"/>
<path d="M13607 3803 c-4 -3 -7 -33 -7 -66 l0 -59 -54 6 c-180 23 -364 -153
-304 -291 51 -116 151 -171 371 -203 171 -26 317 -67 317 -91 0 -31 -38 -56
-179 -117 -159 -70 -177 -76 -185 -63 -4 5 38 31 91 58 58 29 99 56 101 66 4
22 -42 62 -95 83 -37 14 -49 15 -89 4 -105 -30 -364 -235 -364 -290 0 -22 48
-64 99 -87 50 -22 206 -22 291 1 143 39 432 162 489 209 18 16 9 97 -15 130
-37 50 -188 132 -289 158 -16 4 -55 14 -85 22 -69 19 -230 47 -270 47 -26 0
-30 4 -30 29 0 86 59 157 162 195 79 30 88 31 88 13 0 -25 69 -94 116 -116 75
-36 98 -10 46 51 -42 49 -52 81 -52 163 0 73 0 73 -39 104 -51 41 -99 59 -114
44z"/>
<path d="M7931 3767 c-6 -6 -11 -15 -11 -19 0 -19 -74 -167 -106 -211 -47 -66
-44 -92 20 -134 26 -18 59 -33 71 -33 25 0 26 -4 41 -100 3 -25 10 -52 14 -60
13 -26 21 -90 12 -90 -26 0 -238 289 -282 382 -36 77 -60 102 -120 123 -51 18
-65 9 -49 -31 8 -18 12 -91 13 -194 0 -157 -2 -171 -33 -290 -51 -189 -51
-182 3 -220 26 -17 61 -34 79 -37 l33 -5 26 83 c38 121 48 179 48 280 0 65 3
89 13 89 7 0 48 -43 91 -95 178 -216 349 -375 403 -375 31 0 30 8 -25 140 -21
52 -45 120 -51 150 -7 30 -17 71 -23 90 -5 19 -12 138 -15 263 l-6 228 -31 24
c-47 35 -102 55 -115 42z"/>
<path d="M14487 3773 c-4 -3 -7 -23 -7 -43 l0 -37 -88 -12 c-49 -6 -148 -11
-220 -11 -100 0 -132 -3 -132 -13 0 -7 9 -37 21 -67 12 -33 23 -91 26 -145 4
-53 12 -99 21 -112 18 -29 73 -63 101 -63 20 0 21 5 21 84 0 51 -7 104 -17
135 -9 28 -14 53 -12 55 2 2 63 5 134 7 l130 4 0 -175 c0 -96 -4 -263 -8 -371
-8 -194 -7 -195 15 -229 25 -37 98 -84 110 -72 9 9 24 286 34 615 6 231 7 239
28 247 30 11 204 35 211 29 3 -3 0 -32 -6 -65 -6 -32 -9 -107 -7 -165 3 -97 6
-109 31 -147 24 -33 83 -72 112 -72 3 0 5 64 5 143 0 154 10 205 55 300 22 48
25 63 17 82 -13 28 -93 85 -119 85 -10 0 -76 -11 -148 -25 -71 -14 -141 -25
-155 -25 -14 0 -50 16 -80 35 -57 37 -63 39 -73 28z"/>
<path d="M10125 3684 c-60 -41 -127 -87 -147 -101 -21 -14 -38 -32 -38 -41 0
-43 133 -119 163 -94 16 13 22 -77 33 -438 7 -253 16 -280 96 -321 69 -35 68
-37 68 134 l0 152 33 21 c74 47 145 75 209 81 67 6 67 6 74 -22 4 -15 2 -98
-5 -184 -6 -86 -11 -206 -11 -268 l0 -112 33 -24 c38 -29 103 -54 113 -44 9 8
29 325 28 447 0 47 -3 101 -7 121 -10 48 -76 123 -144 161 -29 16 -53 34 -53
38 0 10 31 48 121 150 77 87 119 148 119 171 0 48 -140 124 -161 87 -52 -92
-326 -394 -351 -386 -10 4 -14 46 -18 179 -4 146 -3 175 10 186 8 7 34 26 58
43 23 16 42 34 42 39 0 31 -94 101 -137 101 -10 0 -67 -34 -128 -76z"/>
<path d="M12218 3746 c-154 -34 -313 -124 -449 -253 -41 -40 -87 -94 -102
-121 l-27 -49 23 -33 c21 -31 65 -60 113 -74 19 -6 29 4 69 64 65 97 75 94 75
-27 1 -218 60 -442 137 -515 24 -23 89 -58 108 -58 13 0 3 62 -20 118 -14 34
-25 73 -25 88 0 25 1 25 53 -18 131 -110 232 -152 362 -152 75 0 98 4 135 23
89 46 110 85 70 129 -20 22 -91 62 -108 62 -5 0 -29 -16 -53 -35 -132 -102
-279 -83 -376 49 -49 66 -97 155 -89 163 2 3 22 -1 43 -8 22 -7 85 -13 153
-12 104 0 122 3 190 29 173 69 273 182 273 310 0 83 -38 151 -118 216 -127
103 -276 139 -437 104z m334 -126 c45 -13 58 -34 58 -95 0 -94 -91 -213 -205
-269 -84 -41 -191 -61 -262 -50 -55 8 -58 11 -61 39 -5 40 15 128 45 195 15
35 22 64 18 81 -7 30 -7 29 130 73 115 36 208 45 277 26z"/>
<path d="M16365 3735 c-139 -30 -280 -105 -393 -207 -59 -53 -139 -162 -147
-200 -7 -29 -4 -36 28 -63 20 -17 52 -36 72 -42 42 -13 54 -4 111 85 37 56 54
66 54 28 0 -12 5 -81 10 -152 24 -305 78 -440 194 -489 33 -14 56 -10 56 10 0
7 -11 37 -23 66 -29 66 -41 119 -26 119 6 0 47 -26 92 -58 80 -56 115 -76 187
-103 49 -20 204 -17 252 5 45 19 108 73 108 91 0 23 -58 72 -105 91 l-46 17
-27 -26 c-39 -37 -130 -77 -177 -77 -77 0 -117 18 -180 83 -58 59 -131 177
-118 190 3 4 13 2 22 -3 10 -5 56 -12 102 -16 160 -12 331 40 430 133 70 65
99 128 99 216 0 83 -19 125 -87 188 -117 109 -308 154 -488 114z m403 -132
c20 -27 15 -127 -9 -178 -25 -53 -107 -131 -172 -163 -106 -52 -248 -76 -311
-52 -19 7 -26 17 -26 37 0 43 28 153 51 202 11 24 19 55 16 68 -6 30 14 43
103 73 91 31 152 39 250 34 64 -3 88 -8 98 -21z"/>
<path d="M15610 3699 c-183 -47 -310 -72 -447 -89 -57 -7 -103 -15 -103 -18 0
-22 44 -67 87 -89 29 -14 53 -29 53 -32 0 -4 -8 -32 -17 -62 -12 -39 -17 -93
-17 -194 -1 -134 0 -142 27 -194 40 -77 99 -144 169 -191 55 -36 66 -40 123
-40 81 0 112 24 159 123 53 111 77 188 156 507 19 79 32 179 26 203 -7 28 -75
80 -116 89 -14 3 -59 -3 -100 -13z m20 -184 c0 -66 -74 -317 -142 -482 -31
-75 -77 -127 -107 -121 -21 4 -69 148 -70 210 -1 49 15 119 50 227 16 46 20
77 16 112 l-6 49 32 0 c37 0 198 28 205 35 14 13 22 2 22 -30z"/>
<path d="M8220 3634 c0 -9 18 -33 40 -53 l40 -36 0 -100 c0 -55 -3 -117 -6
-137 -6 -34 -9 -37 -43 -40 -53 -4 -53 -34 -1 -81 l40 -37 0 -150 c0 -115 4
-158 15 -180 16 -32 90 -80 121 -80 10 0 46 23 79 51 122 101 269 152 478 165
65 4 119 10 122 14 6 10 -23 61 -43 76 -9 7 -47 24 -83 39 -52 20 -79 39 -131
93 -62 65 -130 103 -144 81 -10 -16 28 -78 72 -118 24 -21 44 -43 44 -48 0 -5
-33 -15 -74 -21 -40 -7 -104 -24 -142 -38 -87 -33 -135 -47 -140 -41 -2 2 -7
30 -10 63 -10 90 5 102 129 110 82 6 97 10 97 24 0 50 -90 100 -182 100 l-38
0 0 83 c0 119 4 127 54 127 22 0 68 -4 101 -9 33 -5 122 -12 198 -16 121 -5
138 -4 143 10 10 24 -42 72 -95 89 -25 8 -95 18 -156 21 -119 6 -228 18 -371
41 -114 17 -114 17 -114 -2z"/>
<path d="M10833 3634 c-4 -10 10 -30 41 -58 l46 -43 0 -106 c0 -129 -9 -157
-49 -157 -61 0 -62 -47 -1 -90 l30 -21 0 -152 c1 -122 4 -159 18 -187 18 -36
81 -80 117 -80 10 0 53 26 95 58 81 62 137 92 215 115 85 26 96 27 238 42 77
7 141 16 144 19 3 3 -6 21 -20 40 -19 25 -47 42 -99 62 -60 23 -85 40 -143 99
-47 48 -83 74 -109 82 -22 7 -42 10 -44 8 -11 -11 23 -66 69 -111 27 -26 49
-53 49 -59 0 -6 -33 -17 -74 -23 -40 -7 -104 -24 -142 -38 -94 -35 -135 -47
-142 -40 -11 12 -7 133 6 148 9 11 38 17 107 20 52 2 100 9 106 15 17 17 -6
50 -59 84 -36 23 -57 29 -99 29 l-53 0 0 106 0 106 58 -5 c160 -13 415 -26
423 -21 15 9 10 40 -10 58 -43 39 -121 58 -286 67 -88 5 -185 13 -215 18 -30
6 -82 15 -115 20 -81 14 -95 14 -102 -5z"/>
<path d="M16985 3621 c8 -16 28 -39 45 -51 30 -21 30 -22 30 -114 0 -51 -3
-114 -6 -140 -7 -44 -8 -46 -41 -46 -58 0 -55 -60 6 -96 l30 -18 3 -167 c3
-186 5 -192 80 -230 52 -27 63 -25 121 25 131 110 262 157 477 171 130 8 139
11 133 34 -9 33 -57 70 -125 95 -55 19 -77 35 -125 86 -32 35 -76 71 -98 81
-77 35 -71 -15 13 -103 30 -32 53 -60 51 -61 -2 -2 -35 -9 -74 -16 -38 -6
-117 -28 -173 -48 -86 -30 -105 -34 -113 -22 -11 18 -11 120 0 138 10 16 86
29 170 30 53 1 53 1 46 29 -3 15 -14 35 -22 45 -20 21 -104 47 -155 47 l-39 0
3 103 3 102 60 -1 c33 -1 140 -7 239 -13 198 -14 214 -10 180 36 -36 48 -87
66 -213 75 -171 12 -316 27 -405 44 -43 8 -87 14 -97 14 -18 0 -19 -2 -4 -29z"/>
<path d="M9567 3555 c-65 -25 -125 -45 -133 -45 -23 0 -16 -42 13 -72 15 -15
33 -28 40 -28 28 0 10 -36 -72 -143 -133 -175 -262 -345 -330 -432 -95 -124
-94 -120 -45 -166 82 -78 114 -69 208 61 110 151 189 247 218 267 15 9 52 20
83 24 31 4 75 10 98 14 36 6 44 5 49 -11 23 -65 78 -170 113 -216 77 -102 218
-176 315 -164 58 6 60 8 51 36 -11 34 -92 80 -140 80 -90 0 -130 39 -165 160
-7 25 -17 57 -22 72 -14 38 -3 48 53 48 27 0 49 3 49 6 0 20 -39 65 -78 88
l-45 27 6 94 c4 51 16 128 27 170 11 42 18 86 14 97 -3 10 -24 32 -46 49 -60
43 -113 40 -261 -16z m90 -387 c-18 -11 -67 -10 -67 3 0 5 15 28 32 51 l33 40
7 -43 c5 -30 4 -45 -5 -51z"/>
<path d="M1360 2704 c-178 -34 -293 -125 -359 -284 -20 -48 -24 -83 -33 -289
-15 -318 -4 -379 99 -552 l27 -45 -46 -65 c-77 -109 -72 -81 -79 -444 -7 -371
-13 -409 -83 -500 -20 -26 -36 -52 -36 -56 0 -5 24 -20 53 -35 64 -32 97 -61
97 -86 0 -61 119 -196 210 -239 105 -50 143 -54 460 -54 319 0 352 5 441 61
188 118 243 341 222 909 -12 309 -16 329 -88 449 -19 32 -35 62 -35 67 0 4 16
35 35 68 78 133 93 226 84 531 -7 218 -11 244 -55 337 -22 49 -106 128 -166
157 -123 60 -170 68 -458 71 -146 2 -276 1 -290 -1z m425 -267 c46 -26 83 -91
104 -185 18 -85 10 -308 -14 -379 -58 -169 -233 -219 -380 -107 -43 32 -91
119 -105 189 -17 80 -6 254 21 340 37 121 101 161 259 164 61 0 83 -4 115 -22z
m-27 -1079 c60 -30 107 -86 125 -149 9 -30 21 -110 27 -177 17 -176 1 -323
-50 -452 -32 -82 -36 -104 -33 -160 6 -101 -1 -105 -150 -104 -135 1 -176 13
-225 64 -54 56 -71 175 -72 490 0 254 13 329 72 417 65 97 194 127 306 71z"/>
<path d="M2436 2701 c-9 -13 14 -43 70 -94 25 -22 45 -52 53 -76 6 -22 16
-124 21 -228 11 -233 22 -274 91 -341 52 -50 123 -72 237 -72 184 0 282 50
298 151 l6 36 -70 22 c-81 24 -136 75 -148 136 -8 42 14 151 36 178 10 12 42
23 95 33 119 21 176 18 216 -9 32 -21 34 -26 37 -87 3 -54 -9 -114 -69 -350
-40 -157 -78 -300 -86 -317 -7 -18 -25 -40 -41 -49 -90 -55 -137 -92 -162
-129 -30 -44 -68 -160 -57 -172 4 -3 35 -5 70 -4 88 3 94 -6 79 -112 -15 -106
-124 -542 -147 -590 -10 -21 -39 -57 -66 -81 -52 -47 -59 -65 -32 -87 48 -40
48 -115 2 -214 -27 -56 -95 -135 -118 -135 -10 0 -23 -11 -29 -24 -9 -21 -8
-26 7 -31 20 -6 220 11 291 24 34 7 68 4 135 -10 105 -22 275 -26 275 -6 0 6
-27 37 -61 67 l-61 56 10 39 c6 22 27 110 47 195 124 535 144 594 237 721 59
81 76 115 80 169 3 34 2 35 -34 38 -31 3 -39 8 -44 29 -4 15 -1 40 6 57 19 46
76 269 105 408 14 68 32 150 40 183 7 33 23 103 34 155 36 164 75 283 119 364
27 50 91 106 121 106 20 0 44 47 27 53 -12 4 -280 -17 -359 -29 -39 -5 -51 -3
-68 12 -20 18 -45 19 -401 22 -375 3 -380 3 -385 -18 -6 -24 -33 -26 -118 -6
-85 21 -280 32 -289 17z"/>
<path d="M500 2677 c-46 -23 -122 -73 -270 -177 -47 -33 -112 -70 -145 -84
-52 -21 -60 -27 -63 -53 -3 -26 2 -32 38 -48 47 -21 96 -73 107 -113 5 -15 8
-383 8 -818 l0 -791 -27 -35 c-15 -19 -41 -41 -57 -48 -35 -14 -38 -26 -13
-57 11 -15 30 -23 57 -25 l40 -3 -4 -105 c-4 -119 -13 -144 -68 -185 -50 -38
-74 -65 -67 -77 10 -16 223 2 273 23 57 25 102 24 153 -2 31 -16 67 -22 154
-26 136 -7 146 3 60 66 -93 69 -86 -40 -86 1358 l0 1223 -22 -1 c-13 0 -43
-10 -68 -22z"/>
<path d="M4590 2372 c-30 -15 -90 -87 -102 -123 -3 -10 -12 -9 -39 0 -40 15
-244 27 -284 17 -27 -7 -27 -7 43 -74 51 -50 71 -76 76 -102 14 -76 19 -1033
7 -1250 -14 -240 -24 -279 -86 -334 -43 -38 -37 -52 33 -68 l52 -13 -1 -65 c0
-36 -4 -89 -8 -119 -7 -51 -12 -58 -76 -116 -55 -50 -65 -63 -51 -68 23 -9
184 2 278 19 65 11 94 11 200 -1 141 -17 218 -19 218 -6 0 5 -12 19 -26 32
-89 82 -99 112 -114 340 -14 203 -9 1008 5 1010 10 2 32 -37 74 -132 29 -64
68 -152 105 -232 14 -32 26 -60 26 -62 0 -3 16 -39 36 -80 l36 -75 57 0 c82 0
105 27 181 210 55 132 153 329 162 324 4 -3 5 -180 2 -402 -7 -421 -5 -402
-59 -502 -34 -61 -32 -68 18 -72 l42 -3 3 -122 3 -122 -46 -31 c-50 -34 -80
-73 -70 -90 8 -13 150 -5 273 16 72 12 88 12 125 -1 53 -20 291 -33 301 -17 3
6 -10 23 -30 39 -21 15 -53 42 -73 60 l-36 31 -3 944 c-2 652 0 954 8 980 7
26 29 53 71 89 36 32 56 56 50 62 -8 8 -243 -5 -316 -19 -29 -5 -32 -3 -55 47
-35 74 -65 93 -153 97 -96 5 -105 -4 -89 -91 15 -79 8 -102 -91 -317 -83 -181
-164 -369 -172 -403 -4 -15 -11 -27 -16 -27 -19 0 -96 145 -164 310 -15 36
-38 90 -52 120 -55 121 -81 199 -92 280 -17 115 -27 130 -94 130 -28 -1 -68
-9 -87 -18z"/>
<path d="M14163 2377 c-28 -16 -60 -57 -79 -102 -13 -33 -18 -36 -42 -31 -52
11 -293 27 -313 21 -19 -6 -14 -13 35 -57 31 -28 63 -63 71 -79 13 -24 15
-137 15 -770 0 -719 -1 -744 -20 -783 -13 -27 -33 -48 -57 -61 -21 -10 -39
-20 -41 -21 -2 -1 4 -16 13 -33 14 -28 20 -31 60 -31 l45 0 0 -125 0 -124 -57
-39 c-32 -22 -66 -49 -77 -61 -18 -19 -18 -21 -1 -27 32 -13 248 4 290 22 37
15 47 15 130 1 50 -9 132 -19 183 -22 104 -7 115 1 59 46 -41 34 -97 128 -108
182 -9 45 -12 1167 -3 1176 10 11 44 -45 128 -217 47 -95 86 -174 86 -177 0
-2 14 -34 30 -70 17 -36 30 -67 30 -70 0 -2 13 -32 29 -67 16 -35 67 -153 113
-263 81 -195 83 -202 81 -276 -2 -97 -19 -137 -87 -200 -31 -28 -53 -56 -49
-62 8 -13 221 -3 283 14 37 10 66 9 157 -5 114 -16 244 -21 256 -9 4 3 -24 36
-62 72 -49 48 -70 76 -75 101 -13 66 -19 1514 -7 1665 18 223 23 240 89 309
l57 58 -140 -7 c-204 -11 -305 -11 -445 -1 l-125 9 39 -43 c21 -24 51 -70 66
-104 51 -113 55 -152 53 -519 -2 -186 -6 -343 -9 -349 -3 -5 -13 0 -21 11 -20
29 -86 163 -118 241 -15 36 -38 89 -51 118 -13 29 -24 55 -24 57 0 2 -21 48
-46 102 -80 171 -119 278 -169 468 -32 119 -51 145 -109 145 -23 -1 -51 -6
-63 -13z"/>
<path d="M7090 2288 c-36 -11 -92 -25 -126 -31 -54 -9 -69 -7 -145 17 -93 28
-164 33 -191 12 -23 -17 -23 -20 10 -69 16 -23 32 -50 35 -60 13 -34 -24 -217
-110 -557 -96 -378 -171 -682 -203 -815 -37 -155 -55 -185 -170 -274 -31 -24
-21 -48 29 -71 l33 -15 -6 -65 c-11 -110 -55 -202 -108 -228 -38 -18 -73 -64
-56 -72 7 -4 69 -3 138 2 119 9 450 3 497 -9 16 -3 25 0 29 12 5 13 -6 29 -40
61 -44 40 -47 45 -41 81 4 21 9 52 11 68 3 17 13 66 24 110 10 44 21 92 25
108 10 48 61 29 137 -51 54 -57 121 -93 186 -99 103 -10 122 -31 122 -134 0
-44 -4 -59 -14 -59 -18 0 -79 -81 -69 -91 5 -4 82 -2 174 3 108 7 220 7 325 1
87 -6 165 -7 173 -3 12 6 8 14 -16 39 -17 17 -38 31 -46 31 -40 0 -95 157
-187 535 -28 116 -55 226 -60 245 -5 19 -37 150 -71 290 -34 140 -95 388 -137
550 -41 162 -77 308 -79 323 -3 16 6 59 21 103 47 131 30 152 -94 112z m-133
-1176 c6 -39 21 -109 33 -155 39 -145 48 -187 41 -192 -4 -2 -32 16 -62 41
-30 25 -73 57 -96 71 -24 13 -43 28 -43 33 0 4 9 36 20 71 17 52 39 164 40
202 0 5 12 7 27 5 26 -3 28 -8 40 -76z"/>
<path d="M10425 2300 c-16 -5 -48 -14 -70 -20 -22 -7 -67 -17 -101 -22 -55
-10 -69 -8 -145 16 -54 16 -108 26 -147 26 -34 0 -62 -2 -62 -4 0 -2 12 -30
26 -62 23 -50 27 -72 26 -151 -1 -84 -14 -146 -153 -705 -192 -779 -181 -741
-244 -803 -28 -27 -62 -58 -76 -67 -19 -13 -22 -20 -13 -34 11 -18 26 -29 57
-38 23 -7 23 -90 0 -164 -14 -43 -32 -68 -92 -128 -45 -44 -71 -78 -65 -83 5
-5 78 -4 170 1 107 7 215 7 325 1 90 -6 171 -6 179 -2 12 6 5 17 -32 52 -45
41 -48 48 -48 93 0 39 55 297 66 313 11 14 66 -20 125 -75 79 -74 117 -93 209
-105 83 -10 100 -28 100 -110 0 -57 -2 -62 -45 -107 -25 -26 -45 -50 -45 -53
0 -14 31 -15 189 -6 109 6 219 6 325 -1 93 -5 165 -6 170 -1 11 10 -38 66 -65
74 -48 16 -127 234 -203 565 -15 63 -35 151 -46 195 -10 44 -24 105 -30 135
-20 96 -37 165 -144 600 -57 234 -108 441 -111 461 -5 28 -1 49 20 93 46 97
28 138 -50 116z m-185 -1116 c0 -27 27 -167 47 -244 37 -144 44 -172 40 -176
-5 -6 -64 37 -184 133 l-23 18 20 57 c10 32 24 94 31 138 12 78 13 80 41 80
15 0 28 -3 28 -6z"/>
<path d="M8235 2293 c-94 -21 -153 -40 -250 -78 -73 -29 -127 -45 -156 -45
-38 0 -47 -4 -66 -33 -14 -21 -20 -41 -16 -58 4 -24 7 -26 32 -16 79 29 84 -8
89 -608 5 -710 -8 -850 -87 -940 -17 -20 -31 -40 -31 -45 0 -5 15 -17 33 -26
45 -23 77 -54 77 -76 0 -26 -47 -98 -65 -98 -8 0 -18 7 -23 16 -8 14 -11 11
-20 -15 -16 -46 15 -75 93 -90 33 -6 107 -34 165 -62 170 -83 153 -80 510 -74
344 7 365 8 356 30 -7 19 38 20 119 1 77 -18 266 -29 284 -17 11 7 10 12 -5
24 -11 9 -34 28 -53 43 -79 65 -95 178 -88 614 3 173 8 329 13 345 4 18 33 55
71 91 34 33 63 66 63 73 0 18 -63 41 -111 41 -24 0 -70 -13 -112 -32 -80 -35
-134 -39 -207 -14 -114 38 -325 53 -387 27 -47 -19 -58 -57 -58 -193 0 -64 3
-120 7 -124 4 -3 30 3 57 15 31 13 71 21 106 21 51 0 60 -3 90 -33 45 -45 59
-101 52 -213 -6 -103 -26 -155 -84 -215 l-34 -36 41 -49 c48 -57 48 -80 1
-108 -26 -15 -58 -20 -155 -24 -137 -5 -152 1 -182 73 -22 54 -33 314 -34 800
0 475 20 715 66 806 15 30 50 39 155 39 146 0 239 -60 239 -155 0 -72 -56
-135 -166 -185 -35 -17 -64 -35 -64 -42 0 -25 45 -91 81 -120 119 -96 354 -66
474 60 20 22 43 52 51 67 22 43 33 142 27 252 -8 149 16 243 72 282 46 31 75
60 75 75 0 15 -64 36 -111 36 -19 0 -70 -11 -113 -25 -85 -27 -146 -31 -241
-15 -166 28 -293 40 -420 39 -77 -1 -149 -3 -160 -6z"/>
<path d="M11221 2286 c-25 -6 -46 -17 -48 -23 -2 -6 17 -31 43 -54 25 -24 51
-55 57 -69 6 -14 13 -115 17 -225 8 -232 22 -287 90 -349 60 -54 106 -72 236
-91 58 -9 180 19 237 55 36 22 49 26 53 16 6 -14 -55 -179 -109 -296 -19 -41
-46 -100 -60 -130 -13 -30 -43 -94 -66 -142 -22 -48 -59 -135 -81 -193 -60
-153 -90 -191 -215 -278 -19 -14 -19 -15 13 -52 39 -44 38 -65 -11 -165 -35
-72 -107 -150 -158 -170 -36 -15 -49 -27 -49 -47 0 -17 60 -17 226 3 124 14
139 14 182 -1 119 -41 529 -40 788 1 95 15 105 15 150 0 61 -21 268 -34 278
-18 11 18 -10 48 -64 87 l-50 37 0 187 c0 262 -29 356 -133 432 -76 56 -123
71 -217 71 -85 0 -158 -20 -245 -66 -16 -9 -31 -12 -33 -7 -4 11 44 131 103
256 26 55 74 165 107 245 33 80 68 163 78 185 10 22 37 83 60 135 116 264 215
464 251 505 18 21 57 55 86 77 64 47 68 70 14 86 -58 18 -80 15 -196 -24
l-107 -36 -71 33 -72 34 -300 0 c-264 0 -305 -2 -345 -18 -81 -32 -163 -33
-277 -3 -56 14 -105 26 -110 25 -4 -1 -28 -6 -52 -13z m842 -272 c31 -9 14
-120 -34 -220 -17 -36 -33 -80 -36 -100 -7 -43 -17 -50 -46 -32 -12 8 -54 24
-93 36 -44 14 -80 32 -96 50 -45 49 -60 125 -36 193 25 73 73 91 218 83 58 -3
113 -8 123 -10z m22 -1350 c64 -8 99 -29 131 -77 31 -47 42 -128 25 -180 -7
-20 -28 -50 -47 -67 -33 -29 -38 -30 -127 -30 -173 0 -206 25 -169 127 11 32
36 100 54 151 31 87 34 92 58 88 14 -3 48 -8 75 -12z"/>
<path d="M15463 2288 c-33 -16 -29 -33 17 -69 22 -18 49 -51 60 -74 20 -41 20
-62 22 -741 2 -557 0 -711 -11 -759 -15 -67 -34 -102 -62 -110 -15 -5 -19 -16
-19 -56 l0 -49 45 0 45 0 0 -124 0 -125 -32 -22 c-55 -37 -88 -72 -88 -91 0
-10 6 -18 13 -18 6 0 75 5 152 10 89 6 284 7 535 2 217 -5 402 -7 412 -4 10 2
18 11 18 18 0 18 56 18 135 0 68 -15 258 -30 267 -20 13 13 -17 56 -62 88
l-47 34 -7 178 c-13 324 -49 421 -181 484 -57 27 -72 30 -165 30 -57 0 -121
-5 -144 -12 -85 -25 -149 -82 -162 -145 -6 -28 -4 -29 71 -52 90 -28 126 -60
145 -125 27 -97 -7 -172 -98 -214 -79 -36 -166 -35 -229 4 -81 51 -88 73 -91
332 -4 258 5 306 65 373 39 43 158 119 186 119 10 0 55 -25 100 -55 97 -65
101 -63 110 48 10 122 -13 191 -74 223 -43 22 -167 14 -284 -19 -49 -14 -93
-22 -98 -18 -4 4 -6 147 -5 317 l3 309 78 40 c71 36 86 39 155 40 94 0 140
-23 171 -89 27 -54 27 -98 0 -153 -27 -56 -55 -77 -139 -103 -89 -28 -90 -47
-11 -133 68 -74 222 -106 342 -71 111 32 183 91 227 184 24 52 25 64 27 235 2
217 9 250 70 303 51 45 56 64 20 80 -42 19 -60 17 -235 -28 -47 -13 -128 -12
-170 1 -120 36 -145 39 -333 39 -145 0 -205 -4 -247 -16 -141 -41 -182 -41
-340 -4 -73 17 -133 21 -157 8z"/>
<path d="M12927 2263 c-3 -5 10 -25 29 -44 57 -54 83 -108 94 -190 12 -97 12
-1088 0 -1249 -11 -145 -29 -205 -76 -261 -19 -22 -34 -45 -34 -50 0 -12 30
-26 73 -34 21 -4 41 -13 43 -20 10 -26 -15 -194 -35 -233 -11 -22 -42 -58 -68
-80 -36 -31 -43 -42 -32 -47 9 -3 71 -1 140 6 170 15 218 16 334 1 107 -14
220 -13 220 2 0 5 -27 30 -60 56 -33 26 -66 57 -72 71 -18 34 -18 1888 0 1939
8 22 32 51 69 80 36 29 52 47 45 52 -28 18 -203 5 -299 -23 -41 -11 -54 -11
-103 5 -64 20 -259 34 -268 19z"/>
</g>
</svg>
